# File created by Blade
# Date/Time:  Wed Apr 08 17:00:23 2015
#---------------------------------------------------------
:version 1.10
:name HOM
:units
  mass 1.0
  length 1.000000
  angle deg
:documentation
     Acclaim Skeleton File
:root
   axis xyz
   order TX TY TZ RX RY RZ
   position 0.000000 0.000000 0.000000
   orientation 0 0 0
:bonedata
   begin
      id 1
      name Spine_dum
      direction 0.000000 1.000000 0.000000
      length 5.893853
      axis 0.0 0.0 0.0 xyz
   end
   begin
      id 2
      name LeftUpLeg_dum
      direction 1.000000 0.000000 0.000000
      length 3.697939
      axis 0.0 0.0 0.0 xyz
   end
   begin
      id 3
      name RightUpLeg_dum
      direction -1.000000 0.000000 0.000000
      length 3.697939
      axis 0.0 0.0 0.0 xyz
   end
   begin
      id 4
      name Spine
      direction 0.000000 1.000000 0.000000
      length 0.000000
      axis 0.0 0.0 0.0 xyz
      dof rx ry rz
   end
   begin
      id 5
      name Spine_dum1
      direction 0.000000 1.000000 0.000000
      length 16.447146
      axis 0.0 0.0 0.0 xyz
   end
   begin
      id 6
      name Spine_dum2
      direction 0.000000 1.000000 0.000000
      length 10.900383
      axis 0.0 0.0 0.0 xyz
   end
   begin
      id 7
      name Spine_dum3
      direction 0.000000 1.000000 0.000000
      length 10.900383
      axis 0.0 0.0 0.0 xyz
   end
   begin
      id 8
      name Head
      direction 0.000000 1.000000 0.000000
      length 4.527550
      axis 0.0 0.0 0.0 xyz
      dof rx ry rz
   end
   begin
      id 9
      name LeftShoulder
      direction 1.000000 0.000000 0.000000
      length 8.219464
      axis 0.0 0.0 -90.0 xyz
      dof rx ry rz
   end
   begin
      id 10
      name LeftArm
      direction 1.000000 0.000000 0.000000
      length 11.094937
      axis 0.0 0.0 -90.0 xyz
      dof rx ry rz
   end
   begin
      id 11
      name LeftForeArm
      direction 1.000000 0.000000 0.000000
      length 9.103875
      axis 0.0 0.0 -90.0 xyz
      dof ry rz rx
   end
   begin
      id 12
      name LeftHand
      direction 0.000000 0.000000 0.000000
      length 0.000000
      axis 0.0 0.0 -90.0 xyz
      dof rx ry rz
   end
   begin
      id 13
      name LeftHand_dum1
      direction 0.000000 0.000000 0.000000
      length 0.000000
      axis 0.0 0.0 -90.0 xyz
   end
   begin
      id 14
      name LeftHand_dum2
      direction 1.000000 0.000000 0.000000
      length 3.937000
      axis 0.0 0.0 -90.0 xyz
   end
   begin
      id 15
      name LeftHandThumb1
      direction 0.000000 0.000000 1.000000
      length 3.937000
      axis 0.0 0.0 -90.0 xyz
      dof rx rz ry
   end
   begin
      id 16
      name RightShoulder
      direction -1.000000 0.000000 0.000000
      length 8.219464
      axis 0.0 0.0 90.0 xyz
      dof rx ry rz
   end
   begin
      id 17
      name RightArm
      direction -1.000000 0.000000 0.000000
      length 11.094937
      axis 0.0 0.0 90.0 xyz
      dof rx ry rz
   end
   begin
      id 18
      name RightForeArm
      direction -1.000000 0.000000 0.000000
      length 9.103875
      axis 0.0 0.0 90.0 xyz
      dof ry rz rx
   end
   begin
      id 19
      name RightHand
      direction 0.000000 0.000000 0.000000
      length 0.000000
      axis 0.0 0.0 90.0 xyz
      dof rx ry rz
   end
   begin
      id 20
      name RightHand_dum1
      direction 0.000000 0.000000 0.000000
      length 0.000000
      axis 0.0 0.0 90.0 xyz
   end
   begin
      id 21
      name RightHand_dum2
      direction -1.000000 0.000000 0.000000
      length 3.937000
      axis 0.0 0.0 90.0 xyz
   end
   begin
      id 22
      name RightHandThumb1
      direction 0.000000 0.000000 1.000000
      length 3.937000
      axis 0.0 0.0 90.0 xyz
      dof rx rz ry
   end
   begin
      id 23
      name LeftUpLeg
      direction 0.000000 -1.000000 0.000000
      length 16.181467
      axis 0.0 0.0 0.0 xyz
      dof rx ry rz
   end
   begin
      id 24
      name LeftLeg
      direction 0.000000 -1.000000 0.000000
      length 16.501392
      axis 0.0 0.0 0.0 xyz
      dof rx ry rz
   end
   begin
      id 25
      name LeftFoot
      direction 0.000000 -0.258819 0.965926
      length 6.408245
      axis 15.0 0.0 0.0 xyz
      dof rx ry rz
   end
   begin
      id 26
      name LeftToeBase
      direction 0.000000 0.000000 1.000000
      length 2.952750
      axis 0.0 0.0 0.0 xyz
      dof rx ry rz
   end
   begin
      id 27
      name RightUpLeg
      direction 0.000000 -1.000000 0.000000
      length 16.181467
      axis 0.0 0.0 0.0 xyz
      dof rx ry rz
   end
   begin
      id 28
      name RightLeg
      direction 0.000000 -1.000000 0.000000
      length 16.501392
      axis 0.0 0.0 0.0 xyz
      dof rx ry rz
   end
   begin
      id 29
      name RightFoot
      direction 0.000000 -0.258819 0.965926
      length 6.408245
      axis 15.0 0.0 0.0 xyz
      dof rx ry rz
   end
   begin
      id 30
      name RightToeBase
      direction 0.000000 0.000000 1.000000
      length 2.952750
      axis 0.0 0.0 0.0 xyz
      dof rx ry rz
   end
:hierarchy
   begin
      root Spine_dum LeftUpLeg_dum RightUpLeg_dum
      Spine_dum Spine
      LeftUpLeg_dum LeftUpLeg
      RightUpLeg_dum RightUpLeg
      Spine Spine_dum1 Spine_dum2 Spine_dum3
      Spine_dum1 Head
      Spine_dum2 LeftShoulder
      Spine_dum3 RightShoulder
      LeftShoulder LeftArm
      LeftArm LeftForeArm
      LeftForeArm LeftHand
      LeftHand LeftHand_dum1 LeftHand_dum2
      LeftHand_dum1 LeftHandThumb1
      RightShoulder RightArm
      RightArm RightForeArm
      RightForeArm RightHand
      RightHand RightHand_dum1 RightHand_dum2
      RightHand_dum1 RightHandThumb1
      LeftUpLeg LeftLeg
      LeftLeg LeftFoot
      LeftFoot LeftToeBase
      RightUpLeg RightLeg
      RightLeg RightFoot
      RightFoot RightToeBase
   end

# File created by Blade
# Date/Time:  Wed Apr 08 17:00:17 2015
# Frame Rate: 120.000 fps
#------------------------------------------------------
:FULLY-SPECIFIED
:DEGREES
232
root 1.945210 35.854214 2.662226 -29.305505 -83.087231 20.281231
Spine 10.444118 3.773788 -8.275051
Head -20.489709 -1.601355 0.767982
LeftShoulder 10.101264 -4.051203 30.172184
LeftArm 85.208907 45.349596 -55.729025
LeftForeArm -54.596385 -0.000000 88.319841
LeftHand -15.037897 -0.000000 1.474558
LeftHandThumb1 -26.253704 0.000000 33.147579
RightShoulder 5.891042 -30.272308 -30.916668
RightArm 86.557636 35.842459 25.569747
RightForeArm -25.394754 0.000000 105.051049
RightHand 4.690183 -0.000000 19.147045
RightHandThumb1 -24.326973 -0.000000 -32.862282
LeftUpLeg 10.962701 8.950842 5.508577
LeftLeg 10.078355 -0.000000 -0.000000
LeftFoot -12.335550 0.858171 -10.296900
LeftToeBase 8.676943 -0.000000 -0.000000
RightUpLeg 16.139807 -12.206303 -13.367558
RightLeg 2.897109 -0.000000 -0.000000
RightFoot -11.724190 1.692193 19.429306
RightToeBase 14.232835 -0.000000 -0.000000
233
root 1.947956 35.854012 2.661421 -29.182036 -83.035963 20.179187
Spine 10.430265 3.832957 -8.287192
Head -20.531840 -1.624393 0.666600
LeftShoulder 10.096364 -4.073380 30.087793
LeftArm 85.209715 45.319564 -55.685487
LeftForeArm -54.737299 -0.000000 88.257956
LeftHand -14.989648 -0.000000 1.332621
LeftHandThumb1 -26.253704 0.000000 33.147579
RightShoulder 5.867410 -30.263953 -30.951580
RightArm 87.200852 35.875109 26.660352
RightForeArm -24.627524 -0.000000 106.280785
RightHand 4.531796 -0.000000 19.545273
RightHandThumb1 -24.326973 -0.000000 -32.862282
LeftUpLeg 10.926782 8.916752 5.495289
LeftLeg 10.074338 -0.000000 -0.000000
LeftFoot -12.307749 0.822926 -10.305420
LeftToeBase 8.615590 -0.000000 -0.000000
RightUpLeg 16.144415 -12.249765 -13.374754
RightLeg 2.870068 -0.000000 -0.000000
RightFoot -11.728389 1.680952 19.431425
RightToeBase 14.237471 -0.000000 -0.000000
234
root 1.949450 35.854181 2.661038 -29.081889 -82.992369 20.092965
Spine 10.418634 3.907591 -8.300663
Head -20.576717 -1.626827 0.606414
LeftShoulder 10.043843 -4.064142 30.070054
LeftArm 85.146899 45.391078 -55.734992
LeftForeArm -54.601360 -0.000000 88.273211
LeftHand -14.967289 -0.000000 1.332737
LeftHandThumb1 -26.253704 0.000000 33.147579
RightShoulder 5.841197 -30.230574 -30.965997
RightArm 87.819238 35.946204 27.671492
RightForeArm -23.952339 -0.000000 107.361766
RightHand 4.479627 -0.000000 20.078453
RightHandThumb1 -24.326973 -0.000000 -32.862282
LeftUpLeg 10.900596 8.894786 5.485337
LeftLeg 10.075589 -0.000000 -0.000000
LeftFoot -12.296204 0.798018 -10.308724
LeftToeBase 8.611752 -0.000000 -0.000000
RightUpLeg 16.151942 -12.277462 -13.379778
RightLeg 2.848922 -0.000000 -0.000000
RightFoot -11.732139 1.661126 19.430797
RightToeBase 14.272581 -0.000000 -0.000000
235
root 1.950977 35.854114 2.660957 -28.974636 -82.953454 20.003161
Spine 10.402189 3.994280 -8.310647
Head -20.614370 -1.663972 0.537319
LeftShoulder 10.003548 -4.092217 30.041743
LeftArm 85.097366 45.446912 -55.780021
LeftForeArm -54.585458 -0.000000 88.218012
LeftHand -14.950115 -0.000000 1.202270
LeftHandThumb1 -26.253704 0.000000 33.147579
RightShoulder 5.784777 -30.249209 -30.953105
RightArm 88.336212 36.085814 28.509055
RightForeArm -23.711578 -0.000000 108.380396
RightHand 4.128338 -0.000000 20.274213
RightHandThumb1 -24.326973 -0.000000 -32.862282
LeftUpLeg 10.870071 8.874124 5.477988
LeftLeg 10.080212 -0.000000 -0.000000
LeftFoot -12.290089 0.778389 -10.306066
LeftToeBase 8.597806 -0.000000 -0.000000
RightUpLeg 16.152985 -12.313757 -13.385183
RightLeg 2.833266 -0.000000 -0.000000
RightFoot -11.727367 1.646534 19.424495
RightToeBase 14.269060 -0.000000 -0.000000
236
root 1.952671 35.854466 2.661113 -28.901415 -82.906295 19.938455
Spine 10.398497 4.065844 -8.324971
Head -20.661903 -1.696542 0.470592
LeftShoulder 9.982692 -4.097950 30.005935
LeftArm 85.048773 45.455037 -55.828217
LeftForeArm -54.640332 -0.000000 88.179236
LeftHand -14.948830 -0.000000 1.107566
LeftHandThumb1 -26.253704 0.000000 33.147579
RightShoulder 5.754694 -30.254021 -30.949727
RightArm 88.892033 36.248595 29.416241
RightForeArm -23.191774 -0.000000 109.331285
RightHand 3.818259 0.000000 20.762929
RightHandThumb1 -24.326973 -0.000000 -32.862282
LeftUpLeg 10.846784 8.849165 5.465357
LeftLeg 10.085615 -0.000000 -0.000000
LeftFoot -12.278475 0.741203 -10.321159
LeftToeBase 8.631047 -0.000000 -0.000000
RightUpLeg 16.166233 -12.357477 -13.403125
RightLeg 2.815700 -0.000000 -0.000000
RightFoot -11.719290 1.648788 19.433514
RightToeBase 14.226752 -0.000000 -0.000000
237
root 1.954584 35.854524 2.660063 -28.836935 -82.866704 19.890074
Spine 10.380887 4.153357 -8.344136
Head -20.684038 -1.765408 0.400605
LeftShoulder 9.963968 -4.081322 29.976869
LeftArm 85.030103 45.460068 -55.857297
LeftForeArm -54.686580 0.000000 88.149371
LeftHand -14.944282 -0.000000 1.115252
LeftHandThumb1 -26.253704 0.000000 33.147579
RightShoulder 5.727062 -30.249897 -30.958416
RightArm 89.383544 36.340311 30.340621
RightForeArm -22.732846 -0.000000 110.283632
RightHand 3.486048 -0.000000 21.120966
RightHandThumb1 -24.326973 -0.000000 -32.862282
LeftUpLeg 10.811272 8.840849 5.457646
LeftLeg 10.100512 -0.000000 -0.000000
LeftFoot -12.284184 0.748097 -10.268455
LeftToeBase 8.680056 -0.000000 -0.000000
RightUpLeg 16.151066 -12.376354 -13.406525
RightLeg 2.830648 -0.000000 -0.000000
RightFoot -11.743626 1.631709 19.438529
RightToeBase 14.274563 -0.000000 -0.000000
238
root 1.956504 35.854409 2.660201 -28.720173 -82.821209 19.778775
Spine 10.372491 4.215921 -8.348166
Head -20.727050 -1.736471 0.315648
LeftShoulder 9.939494 -4.056885 29.952453
LeftArm 84.986436 45.460278 -55.903833
LeftForeArm -54.727963 0.000000 88.132419
LeftHand -14.858717 -0.000000 0.969963
LeftHandThumb1 -26.253704 0.000000 33.147579
RightShoulder 5.718826 -30.252071 -30.979726
RightArm 89.752524 36.478053 31.171067
RightForeArm -22.570061 -0.000000 111.252474
RightHand 2.996979 -0.000000 21.159220
RightHandThumb1 -24.326973 -0.000000 -32.862282
LeftUpLeg 10.786792 8.784370 5.442147
LeftLeg 10.109469 -0.000000 -0.000000
LeftFoot -12.284232 0.751168 -10.283803
LeftToeBase 8.679168 -0.000000 -0.000000
RightUpLeg 16.152568 -12.411692 -13.413069
RightLeg 2.841350 -0.000000 -0.000000
RightFoot -11.753428 1.616994 19.433728
RightToeBase 14.241058 -0.000000 -0.000000
239
root 1.957410 35.854827 2.659758 -28.617265 -82.765380 19.674232
Spine 10.380487 4.288753 -8.366229
Head -20.778170 -1.806155 0.245612
LeftShoulder 9.892190 -4.054001 29.966483
LeftArm 85.016192 45.466776 -55.920375
LeftForeArm -55.173936 0.000000 87.919300
LeftHand -14.321210 0.000000 0.431125
LeftHandThumb1 -26.253704 0.000000 33.147579
RightShoulder 5.726672 -30.136048 -31.011848
RightArm 90.100557 36.460589 31.973560
RightForeArm -22.833884 -0.000000 112.086784
RightHand 3.027571 0.000000 20.901946
RightHandThumb1 -24.326973 -0.000000 -32.862282
LeftUpLeg 10.760928 8.755633 5.433869
LeftLeg 10.135609 -0.000000 -0.000000
LeftFoot -12.252101 0.696944 -10.319231
LeftToeBase 8.602476 -0.000000 -0.000000
RightUpLeg 16.158923 -12.453700 -13.429615
RightLeg 2.863158 -0.000000 -0.000000
RightFoot -11.767577 1.613114 19.432070
RightToeBase 14.250401 -0.000000 -0.000000
240
root 1.959175 35.854961 2.659767 -28.452168 -82.718031 19.518990
Spine 10.363800 4.363260 -8.365620
Head -20.817995 -1.829832 0.191593
LeftShoulder 9.853070 -4.048107 29.976508
LeftArm 85.057415 45.457770 -55.926481
LeftForeArm -55.719277 -0.000000 87.689588
LeftHand -13.748570 -0.000000 -0.145442
LeftHandThumb1 -26.253704 0.000000 33.147579
RightShoulder 5.701593 -30.133243 -31.026648
RightArm 90.563290 36.588702 32.834692
RightForeArm -22.581968 -0.000000 112.916894
RightHand 3.010892 -0.000000 20.995198
RightHandThumb1 -24.326973 -0.000000 -32.862282
LeftUpLeg 10.720662 8.700047 5.422302
LeftLeg 10.164607 -0.000000 -0.000000
LeftFoot -12.265351 0.696845 -10.315919
LeftToeBase 8.620774 -0.000000 -0.000000
RightUpLeg 16.150968 -12.487807 -13.432027
RightLeg 2.884809 -0.000000 -0.000000
RightFoot -11.783707 1.610222 19.442450
RightToeBase 14.256858 -0.000000 -0.000000
241
root 1.959746 35.854612 2.659847 -28.310607 -82.644649 19.375213
Spine 10.357652 4.402324 -8.373145
Head -20.845952 -1.876982 0.106652
LeftShoulder 9.880486 -4.005785 29.886504
LeftArm 84.950960 45.443989 -56.009727
LeftForeArm -55.112404 -0.000000 87.935910
LeftHand -14.337465 -0.000000 0.452952
LeftHandThumb1 -26.253704 0.000000 33.147579
RightShoulder 5.718993 -30.117680 -31.082507
RightArm 90.914779 36.724509 33.616353
RightForeArm -22.793612 -0.000000 113.790370
RightHand 2.897075 -0.000000 20.924604
RightHandThumb1 -24.326973 -0.000000 -32.862282
LeftUpLeg 10.692432 8.641534 5.404011
LeftLeg 10.190749 -0.000000 -0.000000
LeftFoot -12.266450 0.689554 -10.316213
LeftToeBase 8.617126 -0.000000 -0.000000
RightUpLeg 16.171445 -12.535725 -13.450250
RightLeg 2.893056 -0.000000 -0.000000
RightFoot -11.798323 1.595987 19.461477
RightToeBase 14.251092 -0.000000 -0.000000
242
root 1.960525 35.854232 2.660067 -28.148735 -82.569582 19.214667
Spine 10.349555 4.442445 -8.379960
Head -20.882070 -1.905732 0.012184
LeftShoulder 9.886985 -4.015336 29.832152
LeftArm 84.856575 45.432412 -56.105002
LeftForeArm -54.886438 -0.000000 88.045168
LeftHand -14.697144 0.000000 0.684362
LeftHandThumb1 -26.253704 0.000000 33.147579
RightShoulder 5.719794 -30.063450 -31.142164
RightArm 91.314022 36.812281 34.473032
RightForeArm -22.529659 -0.000000 114.672056
RightHand 2.658837 -0.000000 21.204144
RightHandThumb1 -24.326973 -0.000000 -32.862282
LeftUpLeg 10.653055 8.591948 5.388917
LeftLeg 10.228873 -0.000000 -0.000000
LeftFoot -12.272665 0.671950 -10.287842
LeftToeBase 8.629790 -0.000000 -0.000000
RightUpLeg 16.181642 -12.595288 -13.470212
RightLeg 2.916676 -0.000000 -0.000000
RightFoot -11.814562 1.594562 19.472332
RightToeBase 14.252725 -0.000000 -0.000000
243
root 1.960771 35.854199 2.661597 -27.984450 -82.484970 19.050151
Spine 10.344362 4.486097 -8.391323
Head -20.931711 -1.919310 -0.071710
LeftShoulder 9.862655 -4.029408 29.792987
LeftArm 84.870688 45.423181 -56.118358
LeftForeArm -54.858176 -0.000000 87.989324
LeftHand -14.598814 -0.000000 0.569397
LeftHandThumb1 -26.253704 0.000000 33.147579
RightShoulder 5.722249 -30.042262 -31.159716
RightArm 91.429636 37.012010 34.891995
RightForeArm -23.749131 -0.000000 115.424106
RightHand 2.842764 -0.000000 20.638334
RightHandThumb1 -24.326973 -0.000000 -32.862282
LeftUpLeg 10.623157 8.507141 5.363207
LeftLeg 10.251243 -0.000000 -0.000000
LeftFoot -12.267286 0.668501 -10.293891
LeftToeBase 8.607826 -0.000000 -0.000000
RightUpLeg 16.204067 -12.667253 -13.498428
RightLeg 2.929280 -0.000000 -0.000000
RightFoot -11.827032 1.601156 19.472992
RightToeBase 14.264684 -0.000000 -0.000000
244
root 1.961027 35.854044 2.661610 -27.815877 -82.402705 18.887129
Spine 10.327207 4.520949 -8.398692
Head -20.978893 -1.910609 -0.178535
LeftShoulder 9.855028 -4.043920 29.724024
LeftArm 84.865677 45.395628 -56.124773
LeftForeArm -54.798212 0.000000 87.964568
LeftHand -14.576683 -0.000000 0.619968
LeftHandThumb1 -26.253704 0.000000 33.147579
RightShoulder 5.665988 -30.066618 -31.203837
RightArm 92.144691 37.093786 36.101562
RightForeArm -22.292515 -0.000000 116.320513
RightHand 2.208656 0.000000 21.612798
RightHandThumb1 -24.326973 -0.000000 -32.862282
LeftUpLeg 10.582337 8.454897 5.345664
LeftLeg 10.283850 -0.000000 -0.000000
LeftFoot -12.282514 0.683196 -10.234497
LeftToeBase 8.665060 -0.000000 -0.000000
RightUpLeg 16.222934 -12.716561 -13.512632
RightLeg 2.930149 -0.000000 -0.000000
RightFoot -11.842455 1.572514 19.473639
RightToeBase 14.220730 -0.000000 -0.000000
